<svg width="373" height="340" viewBox="0 0 373 340" fill="none" xmlns="http://www.w3.org/2000/svg">
<path d="M369.257 107.963L183.404 0.77485C182.111 -6.65709e-06 180.819 -0.12915 179.656 0.258279L176.166 1.42056L177.329 1.67885C176.812 2.19542 176.424 2.97028 176.166 3.74514L134.161 140.12C133.128 143.478 134.678 147.61 137.522 149.289L323.505 256.607C323.893 256.865 324.41 256.994 324.926 257.123L324.41 258.157L327.641 256.994C328.933 256.478 330.096 255.315 330.613 253.507L372.618 117.133C373.781 113.775 372.23 109.642 369.257 107.963Z" fill="#101926"/>
<path d="M316.784 261.773L133.257 155.875C130.543 154.326 125.89 154.455 122.659 156.263L4.0122 224.709L0.00561523 223.288L1.16882 228.841C1.29806 229.616 1.94428 230.52 2.97824 231.037L188.315 337.967C191.029 339.517 195.682 339.387 198.913 337.579L317.818 269.005C319.24 268.101 320.145 267.067 320.403 266.034L321.566 260.61L316.784 261.773Z" fill="#101926"/>
<path d="M188.574 333.059L1.81503 225.354C-0.899106 223.805 -0.511372 221.093 2.5905 219.285L122.4 150.193C125.502 148.385 130.284 148.127 132.998 149.806L319.628 257.511C322.342 259.061 321.954 261.773 318.852 263.581L199.042 332.672C195.94 334.48 191.288 334.609 188.574 333.059Z" fill="#1A2638"/>
<g opacity="0.4">
<path opacity="0.4" d="M90.8647 207.92L84.5317 204.304C84.0148 204.046 84.144 203.529 84.661 203.142L92.1572 198.88C92.8034 198.493 93.5789 198.493 94.0958 198.751L100.429 202.367C100.946 202.625 100.817 203.142 100.3 203.529L92.8034 207.791C92.2864 208.178 91.3817 208.178 90.8647 207.92Z" fill="#06033E"/>
<path opacity="0.4" d="M100.558 213.473L94.2251 209.857C93.7081 209.599 93.8374 209.082 94.3543 208.695L101.851 204.433C102.497 204.046 103.272 204.046 103.789 204.304L110.122 207.92C110.639 208.178 110.51 208.695 109.993 209.082L102.497 213.344C101.98 213.731 101.075 213.861 100.558 213.473Z" fill="#06033E"/>
<path opacity="0.4" d="M110.381 219.155L104.048 215.539C103.531 215.281 103.66 214.765 104.177 214.377L111.673 210.115C112.319 209.728 113.095 209.728 113.612 209.986L119.945 213.602C120.462 213.861 120.332 214.377 119.815 214.765L112.319 219.026C111.673 219.414 110.898 219.414 110.381 219.155Z" fill="#06033E"/>
<path opacity="0.4" d="M123.822 214.506L117.489 210.89C116.972 210.632 117.102 210.115 117.619 209.728L123.822 206.112C124.468 205.725 125.244 205.725 125.761 205.983L132.094 209.599C132.611 209.857 132.482 210.374 131.965 210.761L125.761 214.377C125.244 214.765 124.339 214.765 123.822 214.506Z" fill="#06033E"/>
<path opacity="0.4" d="M133.515 220.059L127.182 216.443C126.665 216.185 126.795 215.669 127.312 215.281L133.515 211.665C134.162 211.278 134.937 211.278 135.454 211.536L141.787 215.152C142.304 215.41 142.175 215.927 141.658 216.314L135.454 219.93C134.937 220.318 134.032 220.447 133.515 220.059Z" fill="#06033E"/>
<path opacity="0.4" d="M143.209 225.742L137.005 222.126C136.488 221.867 136.617 221.351 137.134 220.963L143.338 217.347C143.984 216.96 144.76 216.96 145.277 217.218L151.61 220.834C152.127 221.093 151.997 221.609 151.48 221.997L145.277 225.613C144.63 226 143.726 226 143.209 225.742Z" fill="#06033E"/>
<path opacity="0.4" d="M153.031 231.295L146.698 227.679C146.181 227.421 146.311 226.904 146.827 226.517L153.031 222.901C153.677 222.513 154.453 222.513 154.97 222.771L161.303 226.387C161.82 226.646 161.691 227.162 161.174 227.55L154.97 231.166C154.453 231.553 153.548 231.682 153.031 231.295Z" fill="#06033E"/>
<path opacity="0.4" d="M162.725 236.977L156.392 233.361C155.875 233.103 156.004 232.586 156.521 232.199L162.725 228.583C163.371 228.195 164.146 228.195 164.663 228.454L170.996 232.07C171.513 232.328 171.384 232.845 170.867 233.232L164.663 236.848C164.146 237.235 163.242 237.235 162.725 236.977Z" fill="#06033E"/>
<path opacity="0.4" d="M172.418 242.53L166.085 238.914C165.568 238.656 165.697 238.139 166.214 237.752L172.418 234.136C173.064 233.749 173.84 233.749 174.357 234.007L180.69 237.623C181.207 237.881 181.077 238.398 180.56 238.785L174.357 242.401C173.84 242.789 172.935 242.918 172.418 242.53Z" fill="#06033E"/>
<path opacity="0.4" d="M182.241 248.213L175.908 244.597C175.391 244.338 175.52 243.822 176.037 243.434L182.241 239.818C182.887 239.431 183.662 239.431 184.179 239.689L190.512 243.305C191.029 243.563 190.9 244.08 190.383 244.467L184.179 248.083C183.533 248.471 182.758 248.471 182.241 248.213Z" fill="#06033E"/>
<path opacity="0.4" d="M191.934 253.766L185.601 250.15C185.084 249.891 185.213 249.375 185.73 248.987L191.934 245.371C192.58 244.984 193.356 244.984 193.873 245.242L200.206 248.858C200.723 249.117 200.593 249.633 200.076 250.021L193.873 253.637C193.356 254.024 192.451 254.153 191.934 253.766Z" fill="#06033E"/>
<path opacity="0.4" d="M201.627 259.448L195.294 255.832C194.777 255.574 194.907 255.057 195.424 254.67L201.627 251.054C202.274 250.666 203.049 250.666 203.566 250.925L209.899 254.541C210.416 254.799 210.287 255.315 209.77 255.703L203.566 259.319C203.049 259.706 202.144 259.706 201.627 259.448Z" fill="#06033E"/>
<path opacity="0.4" d="M211.45 265.001L205.117 261.385C204.6 261.127 204.729 260.61 205.246 260.223L211.45 256.607C212.096 256.219 212.872 256.219 213.389 256.478L219.722 260.094C220.239 260.352 220.109 260.869 219.592 261.256L213.389 264.872C212.742 265.259 211.967 265.259 211.45 265.001Z" fill="#06033E"/>
<path opacity="0.4" d="M138.168 211.794L131.835 208.178C131.318 207.92 131.447 207.403 131.964 207.016L138.168 203.4C138.814 203.013 139.59 203.013 140.107 203.271L146.44 206.887C146.957 207.145 146.828 207.662 146.311 208.049L140.107 211.665C139.59 212.053 138.685 212.182 138.168 211.794Z" fill="#06033E"/>
<path opacity="0.4" d="M128.216 206.112L121.883 202.496C121.366 202.238 121.496 201.721 122.013 201.334L128.216 197.718C128.863 197.33 129.638 197.33 130.155 197.589L136.488 201.205C137.005 201.463 136.876 201.979 136.359 202.367L130.155 205.983C129.638 206.37 128.733 206.37 128.216 206.112Z" fill="#06033E"/>
<path opacity="0.4" d="M118.394 200.43L104.823 192.552C104.306 192.294 104.436 191.777 104.952 191.39L111.156 187.774C111.802 187.386 112.578 187.386 113.095 187.645L126.666 195.522C127.183 195.781 127.053 196.297 126.536 196.685L120.333 200.301C119.816 200.688 118.911 200.688 118.394 200.43Z" fill="#06033E"/>
<path opacity="0.4" d="M125.244 193.456L114.258 187.128C113.741 186.87 113.87 186.353 114.387 185.966L120.591 182.35C121.237 181.962 122.012 181.962 122.529 182.221L133.515 188.549C134.032 188.807 133.903 189.323 133.386 189.711L127.182 193.327C126.665 193.714 125.761 193.843 125.244 193.456Z" fill="#06033E"/>
<path opacity="0.4" d="M147.862 217.477L141.529 213.861C141.012 213.602 141.141 213.086 141.658 212.698L147.862 209.082C148.508 208.695 149.283 208.695 149.8 208.953L156.133 212.569C156.65 212.827 156.521 213.344 156.004 213.731L149.8 217.347C149.283 217.735 148.379 217.735 147.862 217.477Z" fill="#06033E"/>
<path opacity="0.4" d="M157.555 223.03L151.222 219.414C150.705 219.155 150.834 218.639 151.351 218.251L157.555 214.635C158.201 214.248 158.977 214.248 159.494 214.506L165.827 218.122C166.344 218.381 166.214 218.897 165.697 219.285L159.494 222.901C158.977 223.288 158.072 223.417 157.555 223.03Z" fill="#06033E"/>
<path opacity="0.4" d="M167.377 228.712L161.044 225.096C160.527 224.838 160.657 224.321 161.174 223.934L167.377 220.318C168.024 219.93 168.799 219.93 169.316 220.189L175.649 223.805C176.166 224.063 176.037 224.579 175.52 224.967L169.316 228.583C168.67 228.97 167.894 228.97 167.377 228.712Z" fill="#06033E"/>
<path opacity="0.4" d="M177.071 234.265L170.738 230.649C170.221 230.391 170.35 229.874 170.867 229.487L177.071 225.871C177.717 225.483 178.492 225.483 179.009 225.742L185.342 229.358C185.859 229.616 185.73 230.133 185.213 230.52L179.009 234.136C178.492 234.523 177.588 234.523 177.071 234.265Z" fill="#06033E"/>
<path opacity="0.4" d="M186.764 239.947L180.431 236.331C179.914 236.073 180.043 235.557 180.56 235.169L186.764 231.553C187.41 231.166 188.186 231.166 188.703 231.424L195.036 235.04C195.553 235.298 195.424 235.815 194.907 236.202L188.703 239.818C188.186 240.206 187.281 240.206 186.764 239.947Z" fill="#06033E"/>
<path opacity="0.4" d="M196.587 245.501L190.254 241.885C189.737 241.626 189.866 241.11 190.383 240.722L196.587 237.106C197.233 236.719 198.009 236.719 198.526 236.977L204.859 240.593C205.376 240.851 205.246 241.368 204.729 241.755L198.526 245.371C197.879 245.759 197.104 245.759 196.587 245.501Z" fill="#06033E"/>
<path opacity="0.4" d="M206.28 251.183L199.947 247.567C199.43 247.309 199.56 246.792 200.077 246.405L206.28 242.789C206.926 242.401 207.702 242.401 208.219 242.659L214.552 246.275C215.069 246.534 214.94 247.05 214.423 247.438L208.219 251.054C207.702 251.441 206.797 251.441 206.28 251.183Z" fill="#06033E"/>
<path opacity="0.4" d="M215.974 256.736L209.641 253.12C209.124 252.862 209.253 252.345 209.77 251.958L215.974 248.342C216.62 247.954 217.395 247.954 217.912 248.213L224.245 251.829C224.762 252.087 224.633 252.603 224.116 252.991L217.912 256.607C217.395 256.994 216.491 256.994 215.974 256.736Z" fill="#06033E"/>
<path opacity="0.4" d="M225.796 262.418L219.463 258.802C218.946 258.544 219.075 258.027 219.592 257.64L225.796 254.024C226.442 253.637 227.218 253.637 227.735 253.895L234.068 257.511C234.585 257.769 234.456 258.286 233.939 258.673L227.735 262.289C227.089 262.677 226.184 262.677 225.796 262.418Z" fill="#06033E"/>
<path opacity="0.4" d="M242.986 272.362L229.286 264.485C228.769 264.226 228.898 263.71 229.415 263.322L235.619 259.706C236.265 259.319 237.04 259.319 237.557 259.577L251.257 267.455C251.774 267.713 251.645 268.23 251.128 268.617L244.924 272.233C244.407 272.621 243.503 272.621 242.986 272.362Z" fill="#06033E"/>
<path opacity="0.4" d="M261.985 261.385L250.353 254.67C249.836 254.411 249.965 253.895 250.482 253.507L256.686 249.891C257.332 249.504 258.107 249.504 258.624 249.762L270.256 256.478C270.773 256.736 270.644 257.253 270.127 257.64L263.923 261.256C263.406 261.643 262.502 261.773 261.985 261.385Z" fill="#06033E"/>
<path opacity="0.4" d="M164.922 216.314L158.589 212.698C158.072 212.44 158.201 211.923 158.718 211.536L164.922 207.92C165.568 207.533 166.344 207.533 166.861 207.791L173.194 211.407C173.71 211.665 173.581 212.182 173.064 212.569L166.861 216.185C166.344 216.573 165.439 216.702 164.922 216.314Z" fill="#06033E"/>
<path opacity="0.4" d="M154.97 210.632L148.637 207.016C148.12 206.758 148.249 206.241 148.766 205.854L154.97 202.238C155.616 201.85 156.392 201.85 156.909 202.109L163.242 205.725C163.759 205.983 163.63 206.499 163.113 206.887L156.909 210.503C156.392 210.89 155.487 210.89 154.97 210.632Z" fill="#06033E"/>
<path opacity="0.4" d="M145.018 204.821L138.685 201.205C138.168 200.946 138.297 200.43 138.814 200.042L145.018 196.426C145.664 196.039 146.44 196.039 146.957 196.297L153.29 199.913C153.807 200.171 153.677 200.688 153.16 201.075L146.957 204.691C146.311 205.079 145.535 205.079 145.018 204.821Z" fill="#06033E"/>
<path opacity="0.4" d="M134.937 199.138L128.604 195.522C128.087 195.264 128.216 194.747 128.733 194.36L134.937 190.744C135.583 190.357 136.359 190.357 136.876 190.615L143.209 194.231C143.726 194.489 143.596 195.006 143.079 195.393L136.876 199.009C136.359 199.397 135.454 199.397 134.937 199.138Z" fill="#06033E"/>
<path opacity="0.4" d="M174.615 221.997L168.282 218.381C167.765 218.122 167.895 217.606 168.411 217.218L174.615 213.602C175.261 213.215 176.037 213.215 176.554 213.473L182.887 217.089C183.404 217.347 183.275 217.864 182.758 218.251L176.554 221.867C176.037 222.255 175.132 222.255 174.615 221.997Z" fill="#06033E"/>
<path opacity="0.4" d="M184.438 227.55L178.105 223.934C177.588 223.675 177.717 223.159 178.234 222.771L184.438 219.155C185.084 218.768 185.86 218.768 186.377 219.026L192.71 222.642C193.227 222.901 193.097 223.417 192.58 223.805L186.377 227.421C185.73 227.808 184.955 227.937 184.438 227.55Z" fill="#06033E"/>
<path opacity="0.4" d="M194.131 233.232L187.798 229.616C187.281 229.358 187.411 228.841 187.928 228.454L194.131 224.838C194.778 224.45 195.553 224.45 196.07 224.709L202.403 228.325C202.92 228.583 202.791 229.099 202.274 229.487L196.07 233.103C195.553 233.49 194.648 233.49 194.131 233.232Z" fill="#06033E"/>
<path opacity="0.4" d="M203.825 238.785L197.492 235.169C196.975 234.911 197.104 234.394 197.621 234.007L203.825 230.391C204.471 230.003 205.246 230.003 205.763 230.262L212.096 233.878C212.613 234.136 212.484 234.653 211.967 235.04L205.763 238.656C205.246 239.043 204.342 239.043 203.825 238.785Z" fill="#06033E"/>
<path opacity="0.4" d="M213.647 244.467L207.314 240.851C206.797 240.593 206.926 240.077 207.443 239.689L213.647 236.073C214.293 235.686 215.069 235.686 215.586 235.944L221.919 239.56C222.436 239.818 222.306 240.335 221.789 240.722L215.586 244.338C214.939 244.726 214.035 244.726 213.647 244.467Z" fill="#06033E"/>
<path opacity="0.4" d="M223.34 250.021L217.007 246.405C216.49 246.146 216.62 245.63 217.137 245.242L223.34 241.626C223.987 241.239 224.762 241.239 225.279 241.497L231.612 245.113C232.129 245.371 232 245.888 231.483 246.275L225.279 249.891C224.762 250.279 223.857 250.279 223.34 250.021Z" fill="#06033E"/>
<path opacity="0.4" d="M233.034 255.703L226.701 252.087C226.184 251.829 226.313 251.312 226.83 250.925L233.034 247.309C233.68 246.921 234.455 246.921 234.972 247.179L241.305 250.795C241.822 251.054 241.693 251.57 241.176 251.958L234.972 255.574C234.455 255.961 233.551 255.961 233.034 255.703Z" fill="#06033E"/>
<path opacity="0.4" d="M242.727 261.256L236.394 257.64C235.877 257.382 236.006 256.865 236.523 256.478L242.727 252.862C243.373 252.474 244.149 252.474 244.666 252.733L250.999 256.349C251.516 256.607 251.386 257.123 250.869 257.511L244.666 261.127C244.149 261.514 243.244 261.514 242.727 261.256Z" fill="#06033E"/>
<path opacity="0.4" d="M252.55 266.938L246.217 263.322C245.7 263.064 245.829 262.547 246.346 262.16L252.55 258.544C253.196 258.157 253.971 258.157 254.488 258.415L260.821 262.031C261.338 262.289 261.209 262.806 260.692 263.193L254.488 266.809C253.842 267.197 253.067 267.197 252.55 266.938Z" fill="#06033E"/>
<path opacity="0.4" d="M159.752 202.496L153.419 198.88C152.902 198.622 153.031 198.105 153.548 197.718L159.752 194.102C160.398 193.714 161.174 193.714 161.691 193.973L168.024 197.589C168.541 197.847 168.411 198.363 167.894 198.751L161.691 202.367C161.174 202.754 160.269 202.754 159.752 202.496Z" fill="#06033E"/>
<path opacity="0.4" d="M150.059 196.943L143.726 193.327C143.209 193.069 143.338 192.552 143.855 192.165L150.059 188.549C150.705 188.161 151.48 188.161 151.997 188.419L158.33 192.035C158.847 192.294 158.718 192.81 158.201 193.198L151.997 196.814C151.48 197.072 150.576 197.201 150.059 196.943Z" fill="#06033E"/>
<path opacity="0.4" d="M140.365 191.261L134.032 187.645C133.515 187.386 133.645 186.87 134.161 186.482L140.365 182.866C141.011 182.479 141.787 182.479 142.304 182.737L148.637 186.353C149.154 186.611 149.025 187.128 148.508 187.515L142.304 191.131C141.787 191.519 140.882 191.648 140.365 191.261Z" fill="#06033E"/>
<path opacity="0.4" d="M130.801 185.707L124.468 182.091C123.951 181.833 124.081 181.317 124.598 180.929L130.801 177.313C131.447 176.926 132.223 176.926 132.74 177.184L139.073 180.8C139.59 181.058 139.461 181.575 138.944 181.962L132.74 185.578C132.094 185.966 131.189 185.966 130.801 185.707Z" fill="#06033E"/>
<path opacity="0.4" d="M140.753 180.025L134.42 176.409C133.903 176.151 134.032 175.634 134.549 175.247L136.617 174.085C137.264 173.697 138.039 173.697 138.556 173.955L144.889 177.571C145.406 177.83 145.277 178.346 144.76 178.734L142.692 179.896C142.046 180.154 141.27 180.283 140.753 180.025Z" fill="#06033E"/>
<path opacity="0.4" d="M153.29 187.257L146.957 183.641C146.44 183.383 146.569 182.866 147.086 182.479L149.154 181.317C149.8 180.929 150.576 180.929 151.093 181.187L157.426 184.803C157.943 185.062 157.814 185.578 157.297 185.966L155.229 187.128C154.712 187.515 153.807 187.515 153.29 187.257Z" fill="#06033E"/>
<path opacity="0.4" d="M162.983 192.81L156.65 189.194C156.133 188.936 156.263 188.419 156.78 188.032L158.848 186.87C159.494 186.482 160.269 186.482 160.786 186.741L167.119 190.357C167.636 190.615 167.507 191.131 166.99 191.519L164.922 192.681C164.405 193.069 163.5 193.069 162.983 192.81Z" fill="#06033E"/>
<path opacity="0.4" d="M172.677 198.363L166.344 194.747C165.827 194.489 165.956 193.973 166.473 193.585L168.541 192.423C169.187 192.035 169.962 192.035 170.479 192.294L176.812 195.91C177.329 196.168 177.2 196.685 176.683 197.072L174.615 198.234C173.969 198.622 173.193 198.622 172.677 198.363Z" fill="#06033E"/>
<path opacity="0.4" d="M182.241 203.917L175.908 200.301C175.391 200.042 175.52 199.526 176.037 199.138L178.105 197.976C178.751 197.589 179.527 197.589 180.044 197.847L186.377 201.463C186.894 201.721 186.764 202.238 186.247 202.625L184.179 203.787C183.662 204.175 182.758 204.175 182.241 203.917Z" fill="#06033E"/>
<path opacity="0.4" d="M236.136 235.04L229.803 231.424C229.286 231.166 229.415 230.649 229.932 230.262L232 229.099C232.646 228.712 233.422 228.712 233.939 228.97L240.272 232.586C240.789 232.845 240.659 233.361 240.142 233.749L238.074 234.911C237.557 235.298 236.653 235.298 236.136 235.04Z" fill="#06033E"/>
<path opacity="0.4" d="M245.7 240.593L239.367 236.977C238.85 236.719 238.979 236.202 239.496 235.815L241.564 234.653C242.21 234.265 242.986 234.265 243.503 234.523L249.836 238.139C250.353 238.398 250.223 238.914 249.706 239.302L247.638 240.464C247.121 240.851 246.217 240.851 245.7 240.593Z" fill="#06033E"/>
<path opacity="0.4" d="M255.393 246.146L249.06 242.53C248.543 242.272 248.672 241.755 249.189 241.368L251.257 240.206C251.903 239.818 252.679 239.818 253.196 240.077L259.529 243.693C260.046 243.951 259.917 244.467 259.4 244.855L257.332 246.017C256.815 246.405 255.91 246.405 255.393 246.146Z" fill="#06033E"/>
<path opacity="0.4" d="M265.086 251.699L258.753 248.083C258.236 247.825 258.366 247.309 258.883 246.921L260.951 245.759C261.597 245.371 262.372 245.371 262.889 245.63L269.222 249.246C269.739 249.504 269.61 250.021 269.093 250.408L267.025 251.57C266.379 251.958 265.603 251.958 265.086 251.699Z" fill="#06033E"/>
<path opacity="0.4" d="M169.575 208.049L163.242 204.433C162.725 204.175 162.854 203.658 163.371 203.271L169.575 199.655C170.221 199.267 170.996 199.267 171.513 199.526L177.846 203.142C178.363 203.4 178.234 203.917 177.717 204.304L171.513 207.92C170.867 208.307 170.092 208.437 169.575 208.049Z" fill="#06033E"/>
<path opacity="0.4" d="M179.268 213.731L172.935 210.115C172.418 209.857 172.547 209.341 173.064 208.953L179.268 205.337C179.914 204.95 180.69 204.95 181.207 205.208L187.54 208.824C188.057 209.082 187.927 209.599 187.41 209.986L181.207 213.602C180.69 213.99 179.785 213.99 179.268 213.731Z" fill="#06033E"/>
<path opacity="0.4" d="M188.961 219.285L182.628 215.669C182.111 215.41 182.241 214.894 182.758 214.506L188.961 210.89C189.608 210.503 190.383 210.503 190.9 210.761L197.233 214.377C197.75 214.635 197.621 215.152 197.104 215.539L190.9 219.155C190.383 219.543 189.478 219.543 188.961 219.285Z" fill="#06033E"/>
<path opacity="0.4" d="M198.784 224.967L192.451 221.351C191.934 221.093 192.063 220.576 192.58 220.189L198.784 216.573C199.43 216.185 200.206 216.185 200.723 216.443L207.056 220.059C207.573 220.318 207.443 220.834 206.926 221.222L200.723 224.838C200.076 225.225 199.172 225.225 198.784 224.967Z" fill="#06033E"/>
<path opacity="0.4" d="M208.477 230.52L202.144 226.904C201.627 226.646 201.757 226.129 202.274 225.742L208.477 222.126C209.124 221.738 209.899 221.738 210.416 221.997L216.749 225.613C217.266 225.871 217.137 226.387 216.62 226.775L210.416 230.391C209.899 230.778 208.994 230.778 208.477 230.52Z" fill="#06033E"/>
<path opacity="0.4" d="M218.171 236.202L211.838 232.586C211.321 232.328 211.45 231.811 211.967 231.424L218.171 227.808C218.817 227.421 219.592 227.421 220.109 227.679L226.442 231.295C226.959 231.553 226.83 232.07 226.313 232.457L220.109 236.073C219.592 236.461 218.688 236.461 218.171 236.202Z" fill="#06033E"/>
<path opacity="0.4" d="M227.864 241.755L221.531 238.139C221.014 237.881 221.143 237.365 221.66 236.977L227.864 233.361C228.51 232.974 229.286 232.974 229.803 233.232L236.136 236.848C236.653 237.106 236.523 237.623 236.006 238.01L229.803 241.626C229.286 242.014 228.381 242.014 227.864 241.755Z" fill="#06033E"/>
<path opacity="0.4" d="M237.687 247.438L231.354 243.822C230.837 243.563 230.966 243.047 231.483 242.659L237.687 239.043C238.333 238.656 239.108 238.656 239.625 238.914L245.958 242.53C246.475 242.789 246.346 243.305 245.829 243.693L239.625 247.309C239.108 247.696 238.203 247.696 237.687 247.438Z" fill="#06033E"/>
<path opacity="0.4" d="M247.38 252.991L241.047 249.375C240.53 249.117 240.659 248.6 241.176 248.213L247.38 244.597C248.026 244.209 248.802 244.209 249.319 244.467L255.652 248.083C256.169 248.342 256.039 248.858 255.522 249.246L249.319 252.862C248.802 253.249 247.897 253.249 247.38 252.991Z" fill="#06033E"/>
<path opacity="0.4" d="M113.87 208.824L95.259 198.105C94.7421 197.847 94.8713 197.33 95.3883 196.943L101.592 193.327C102.238 192.939 103.014 192.939 103.531 193.198L122.142 203.917C122.659 204.175 122.53 204.691 122.013 205.079L115.809 208.695C115.292 209.082 114.387 209.082 113.87 208.824Z" fill="#06033E"/>
<path opacity="0.4" d="M233.422 277.786L214.81 267.067C214.293 266.809 214.423 266.293 214.94 265.905L221.143 262.289C221.79 261.902 222.565 261.902 223.082 262.16L241.693 272.879C242.21 273.137 242.081 273.654 241.564 274.041L235.36 277.657C234.843 278.045 233.939 278.045 233.422 277.786Z" fill="#06033E"/>
<path opacity="0.4" d="M194.519 267.713L188.186 264.097C187.669 263.839 187.798 263.322 188.315 262.935L195.811 258.673C196.458 258.286 197.233 258.286 197.75 258.544L204.083 262.16C204.6 262.418 204.471 262.935 203.954 263.322L196.458 267.584C195.941 267.971 195.036 267.971 194.519 267.713Z" fill="#06033E"/>
<path opacity="0.4" d="M123.822 226.904L113.741 221.093C113.224 220.834 113.353 220.318 113.87 219.93L121.366 215.669C122.013 215.281 122.788 215.281 123.305 215.539L133.386 221.351C133.903 221.609 133.774 222.126 133.257 222.513L125.761 226.775C125.244 227.162 124.339 227.162 123.822 226.904Z" fill="#06033E"/>
<path opacity="0.4" d="M185.213 262.289L175.132 256.478C174.615 256.219 174.745 255.703 175.262 255.315L182.758 251.054C183.404 250.666 184.179 250.666 184.696 250.925L194.778 256.736C195.294 256.994 195.165 257.511 194.648 257.898L187.152 262.16C186.506 262.547 185.601 262.547 185.213 262.289Z" fill="#06033E"/>
<path opacity="0.4" d="M137.91 235.04L127.829 229.229C127.312 228.97 127.441 228.454 127.958 228.066L135.454 223.805C136.1 223.417 136.876 223.417 137.393 223.675L147.474 229.487C147.991 229.745 147.862 230.262 147.345 230.649L139.848 234.911C139.331 235.298 138.427 235.298 137.91 235.04Z" fill="#06033E"/>
<path opacity="0.4" d="M137.393 223.675L181.207 248.987C181.724 249.246 181.724 249.762 181.207 250.15L173.581 254.541C173.064 254.799 172.16 254.799 171.643 254.541L127.829 229.229L137.393 223.675Z" fill="#06033E"/>
<path opacity="0.4" d="M221.789 277.915L228.769 281.919C229.156 282.177 229.156 282.565 228.639 282.823L225.538 284.631C225.021 284.889 224.374 284.889 223.857 284.76L216.878 280.757C216.49 280.498 216.49 280.111 217.007 279.853L220.109 278.045C220.626 277.657 221.273 277.657 221.789 277.915Z" fill="#06033E"/>
<path opacity="0.4" d="M211.967 272.233L218.946 276.237C219.334 276.495 219.334 276.882 218.817 277.141L215.844 278.949C215.327 279.207 214.681 279.207 214.164 279.078L207.185 275.074C206.797 274.816 206.797 274.429 207.314 274.17L210.416 272.362C210.804 271.975 211.45 271.975 211.967 272.233Z" fill="#06033E"/>
<path opacity="0.4" d="M202.144 266.551L209.123 270.554C209.511 270.813 209.511 271.2 208.994 271.458L205.892 273.266C205.375 273.525 204.729 273.525 204.212 273.395L197.233 269.392C196.845 269.134 196.845 268.746 197.362 268.488L200.464 266.68C201.11 266.422 201.756 266.422 202.144 266.551Z" fill="#06033E"/>
<path opacity="0.4" d="M217.266 269.134L224.245 273.137C224.633 273.395 224.633 273.783 224.116 274.041L221.014 275.849C220.497 276.107 219.851 276.107 219.334 275.978L212.355 271.975C211.967 271.717 211.967 271.329 212.484 271.071L215.586 269.263C216.103 268.875 216.878 268.875 217.266 269.134Z" fill="#06033E"/>
</g>
<path d="M90.8647 207.92L84.5317 204.304C84.0148 204.046 84.144 203.529 84.661 203.142L92.1572 198.88C92.8034 198.493 93.5789 198.493 94.0958 198.751L100.429 202.367C100.946 202.625 100.817 203.142 100.3 203.529L92.8034 207.791C92.2864 208.178 91.3817 208.178 90.8647 207.92Z" fill="#233349"/>
<path d="M100.558 213.473L94.2251 209.857C93.7081 209.599 93.8374 209.082 94.3543 208.695L101.851 204.433C102.497 204.046 103.272 204.046 103.789 204.304L110.122 207.92C110.639 208.178 110.51 208.695 109.993 209.082L102.497 213.344C101.98 213.731 101.075 213.861 100.558 213.473Z" fill="#233349"/>
<path d="M110.381 219.155L104.048 215.539C103.531 215.281 103.66 214.765 104.177 214.377L111.673 210.115C112.319 209.728 113.095 209.728 113.612 209.986L119.945 213.602C120.462 213.861 120.332 214.377 119.815 214.765L112.319 219.026C111.673 219.414 110.898 219.414 110.381 219.155Z" fill="#233349"/>
<path d="M123.822 214.506L117.489 210.89C116.972 210.632 117.102 210.115 117.619 209.728L123.822 206.112C124.468 205.725 125.244 205.725 125.761 205.983L132.094 209.599C132.611 209.857 132.482 210.374 131.965 210.761L125.761 214.377C125.244 214.765 124.339 214.765 123.822 214.506Z" fill="#233349"/>
<path d="M133.515 220.059L127.182 216.443C126.665 216.185 126.795 215.669 127.312 215.281L133.515 211.665C134.162 211.278 134.937 211.278 135.454 211.536L141.787 215.152C142.304 215.41 142.175 215.927 141.658 216.314L135.454 219.93C134.937 220.318 134.032 220.447 133.515 220.059Z" fill="#233349"/>
<path d="M143.209 225.742L137.005 222.126C136.488 221.867 136.617 221.351 137.134 220.963L143.338 217.347C143.984 216.96 144.76 216.96 145.277 217.218L151.61 220.834C152.127 221.093 151.997 221.609 151.48 221.997L145.277 225.613C144.63 226 143.726 226 143.209 225.742Z" fill="#233349"/>
<path d="M153.031 231.295L146.698 227.679C146.181 227.421 146.311 226.904 146.827 226.517L153.031 222.901C153.677 222.513 154.453 222.513 154.97 222.771L161.303 226.387C161.82 226.646 161.691 227.162 161.174 227.55L154.97 231.166C154.453 231.553 153.548 231.682 153.031 231.295Z" fill="#233349"/>
<path d="M162.725 236.977L156.392 233.361C155.875 233.103 156.004 232.586 156.521 232.199L162.725 228.583C163.371 228.195 164.146 228.195 164.663 228.454L170.996 232.07C171.513 232.328 171.384 232.845 170.867 233.232L164.663 236.848C164.146 237.235 163.242 237.235 162.725 236.977Z" fill="#233349"/>
<path d="M172.418 242.53L166.085 238.914C165.568 238.656 165.697 238.139 166.214 237.752L172.418 234.136C173.064 233.749 173.84 233.749 174.357 234.007L180.69 237.623C181.207 237.881 181.077 238.398 180.56 238.785L174.357 242.401C173.84 242.789 172.935 242.918 172.418 242.53Z" fill="#233349"/>
<path d="M182.241 248.213L175.908 244.597C175.391 244.338 175.52 243.822 176.037 243.434L182.241 239.818C182.887 239.431 183.662 239.431 184.179 239.689L190.512 243.305C191.029 243.563 190.9 244.08 190.383 244.467L184.179 248.083C183.533 248.471 182.758 248.471 182.241 248.213Z" fill="#233349"/>
<path d="M191.934 253.766L185.601 250.15C185.084 249.891 185.213 249.375 185.73 248.987L191.934 245.371C192.58 244.984 193.356 244.984 193.873 245.242L200.206 248.858C200.723 249.117 200.593 249.633 200.076 250.021L193.873 253.637C193.356 254.024 192.451 254.153 191.934 253.766Z" fill="#233349"/>
<path d="M201.627 259.448L195.294 255.832C194.777 255.574 194.907 255.057 195.424 254.67L201.627 251.054C202.274 250.666 203.049 250.666 203.566 250.925L209.899 254.541C210.416 254.799 210.287 255.315 209.77 255.703L203.566 259.319C203.049 259.706 202.144 259.706 201.627 259.448Z" fill="#233349"/>
<path d="M211.45 265.001L205.117 261.385C204.6 261.127 204.729 260.61 205.246 260.223L211.45 256.607C212.096 256.219 212.872 256.219 213.389 256.478L219.722 260.094C220.239 260.352 220.109 260.869 219.592 261.256L213.389 264.872C212.742 265.259 211.967 265.259 211.45 265.001Z" fill="#233349"/>
<path d="M138.168 211.794L131.835 208.178C131.318 207.92 131.447 207.403 131.964 207.016L138.168 203.4C138.814 203.013 139.59 203.013 140.107 203.271L146.44 206.887C146.957 207.145 146.828 207.662 146.311 208.049L140.107 211.665C139.59 212.053 138.685 212.182 138.168 211.794Z" fill="#233349"/>
<path d="M128.216 206.112L121.883 202.496C121.366 202.238 121.496 201.721 122.013 201.334L128.216 197.718C128.863 197.33 129.638 197.33 130.155 197.589L136.488 201.205C137.005 201.463 136.876 201.979 136.359 202.367L130.155 205.983C129.638 206.37 128.733 206.37 128.216 206.112Z" fill="#233349"/>
<path d="M118.394 200.43L104.823 192.552C104.306 192.294 104.436 191.777 104.952 191.39L111.156 187.774C111.802 187.386 112.578 187.386 113.095 187.645L126.666 195.522C127.183 195.781 127.053 196.297 126.536 196.685L120.333 200.301C119.816 200.688 118.911 200.688 118.394 200.43Z" fill="#233349"/>
<path d="M125.244 193.456L114.258 187.128C113.741 186.87 113.87 186.353 114.387 185.966L120.591 182.35C121.237 181.962 122.012 181.962 122.529 182.221L133.515 188.549C134.032 188.807 133.903 189.323 133.386 189.711L127.182 193.327C126.665 193.714 125.761 193.843 125.244 193.456Z" fill="#233349"/>
<path d="M147.862 217.477L141.529 213.861C141.012 213.602 141.141 213.086 141.658 212.698L147.862 209.082C148.508 208.695 149.283 208.695 149.8 208.953L156.133 212.569C156.65 212.827 156.521 213.344 156.004 213.731L149.8 217.347C149.283 217.735 148.379 217.735 147.862 217.477Z" fill="#233349"/>
<path d="M157.555 223.03L151.222 219.414C150.705 219.155 150.834 218.639 151.351 218.251L157.555 214.635C158.201 214.248 158.977 214.248 159.494 214.506L165.827 218.122C166.344 218.381 166.214 218.897 165.697 219.285L159.494 222.901C158.977 223.288 158.072 223.417 157.555 223.03Z" fill="#233349"/>
<path d="M167.377 228.712L161.044 225.096C160.527 224.838 160.657 224.321 161.174 223.934L167.377 220.318C168.024 219.93 168.799 219.93 169.316 220.189L175.649 223.805C176.166 224.063 176.037 224.579 175.52 224.967L169.316 228.583C168.67 228.97 167.894 228.97 167.377 228.712Z" fill="#233349"/>
<path d="M177.071 234.265L170.738 230.649C170.221 230.391 170.35 229.874 170.867 229.487L177.071 225.871C177.717 225.483 178.492 225.483 179.009 225.742L185.342 229.358C185.859 229.616 185.73 230.133 185.213 230.52L179.009 234.136C178.492 234.523 177.588 234.523 177.071 234.265Z" fill="#233349"/>
<path d="M186.764 239.947L180.431 236.331C179.914 236.073 180.043 235.557 180.56 235.169L186.764 231.553C187.41 231.166 188.186 231.166 188.703 231.424L195.036 235.04C195.553 235.298 195.424 235.815 194.907 236.202L188.703 239.818C188.186 240.206 187.281 240.206 186.764 239.947Z" fill="#233349"/>
<path d="M196.587 245.501L190.254 241.885C189.737 241.626 189.866 241.11 190.383 240.722L196.587 237.106C197.233 236.719 198.009 236.719 198.526 236.977L204.859 240.593C205.376 240.851 205.246 241.368 204.729 241.755L198.526 245.371C197.879 245.759 197.104 245.759 196.587 245.501Z" fill="#233349"/>
<path d="M206.28 251.183L199.947 247.567C199.43 247.309 199.56 246.792 200.077 246.405L206.28 242.789C206.926 242.401 207.702 242.401 208.219 242.659L214.552 246.275C215.069 246.534 214.94 247.05 214.423 247.438L208.219 251.054C207.702 251.441 206.797 251.441 206.28 251.183Z" fill="#233349"/>
<path d="M215.974 256.736L209.641 253.12C209.124 252.862 209.253 252.345 209.77 251.958L215.974 248.342C216.62 247.954 217.395 247.954 217.912 248.213L224.245 251.829C224.762 252.087 224.633 252.603 224.116 252.991L217.912 256.607C217.395 256.994 216.491 256.994 215.974 256.736Z" fill="#233349"/>
<path d="M225.796 262.418L219.463 258.802C218.946 258.544 219.075 258.027 219.592 257.64L225.796 254.024C226.442 253.637 227.218 253.637 227.735 253.895L234.068 257.511C234.585 257.769 234.456 258.286 233.939 258.673L227.735 262.289C227.089 262.677 226.184 262.677 225.796 262.418Z" fill="#233349"/>
<path d="M242.986 272.362L229.286 264.485C228.769 264.226 228.898 263.71 229.415 263.322L235.619 259.706C236.265 259.319 237.04 259.319 237.557 259.577L251.257 267.455C251.774 267.713 251.645 268.23 251.128 268.617L244.924 272.233C244.407 272.621 243.503 272.621 242.986 272.362Z" fill="#233349"/>
<path d="M261.985 261.385L250.353 254.67C249.836 254.411 249.965 253.895 250.482 253.507L256.686 249.891C257.332 249.504 258.107 249.504 258.624 249.762L270.256 256.478C270.773 256.736 270.644 257.253 270.127 257.64L263.923 261.256C263.406 261.643 262.502 261.773 261.985 261.385Z" fill="#233349"/>
<path d="M164.922 216.314L158.589 212.698C158.072 212.44 158.201 211.923 158.718 211.536L164.922 207.92C165.568 207.533 166.344 207.533 166.861 207.791L173.194 211.407C173.71 211.665 173.581 212.182 173.064 212.569L166.861 216.185C166.344 216.573 165.439 216.702 164.922 216.314Z" fill="#233349"/>
<path d="M154.97 210.632L148.637 207.016C148.12 206.758 148.249 206.241 148.766 205.854L154.97 202.238C155.616 201.85 156.392 201.85 156.909 202.109L163.242 205.725C163.759 205.983 163.63 206.499 163.113 206.887L156.909 210.503C156.392 210.89 155.487 210.89 154.97 210.632Z" fill="#233349"/>
<path d="M145.018 204.821L138.685 201.205C138.168 200.946 138.297 200.43 138.814 200.042L145.018 196.426C145.664 196.039 146.44 196.039 146.957 196.297L153.29 199.913C153.807 200.171 153.677 200.688 153.16 201.075L146.957 204.691C146.311 205.079 145.535 205.079 145.018 204.821Z" fill="#233349"/>
<path d="M134.937 199.138L128.604 195.522C128.087 195.264 128.216 194.747 128.733 194.36L134.937 190.744C135.583 190.357 136.359 190.357 136.876 190.615L143.209 194.231C143.726 194.489 143.596 195.006 143.079 195.393L136.876 199.009C136.359 199.397 135.454 199.397 134.937 199.138Z" fill="#233349"/>
<path d="M174.615 221.997L168.282 218.381C167.765 218.122 167.895 217.606 168.411 217.218L174.615 213.602C175.261 213.215 176.037 213.215 176.554 213.473L182.887 217.089C183.404 217.347 183.275 217.864 182.758 218.251L176.554 221.867C176.037 222.255 175.132 222.255 174.615 221.997Z" fill="#233349"/>
<path d="M184.438 227.55L178.105 223.934C177.588 223.675 177.717 223.159 178.234 222.771L184.438 219.155C185.084 218.768 185.86 218.768 186.377 219.026L192.71 222.642C193.227 222.901 193.097 223.417 192.58 223.805L186.377 227.421C185.73 227.808 184.955 227.937 184.438 227.55Z" fill="#233349"/>
<path d="M194.131 233.232L187.798 229.616C187.281 229.358 187.411 228.841 187.928 228.454L194.131 224.838C194.778 224.45 195.553 224.45 196.07 224.709L202.403 228.325C202.92 228.583 202.791 229.099 202.274 229.487L196.07 233.103C195.553 233.49 194.648 233.49 194.131 233.232Z" fill="#233349"/>
<path d="M203.825 238.785L197.492 235.169C196.975 234.911 197.104 234.394 197.621 234.007L203.825 230.391C204.471 230.003 205.246 230.003 205.763 230.262L212.096 233.878C212.613 234.136 212.484 234.653 211.967 235.04L205.763 238.656C205.246 239.043 204.342 239.043 203.825 238.785Z" fill="#233349"/>
<path d="M213.647 244.467L207.314 240.851C206.797 240.593 206.926 240.077 207.443 239.689L213.647 236.073C214.293 235.686 215.069 235.686 215.586 235.944L221.919 239.56C222.436 239.818 222.306 240.335 221.789 240.722L215.586 244.338C214.939 244.726 214.035 244.726 213.647 244.467Z" fill="#233349"/>
<path d="M223.34 250.021L217.007 246.405C216.49 246.146 216.62 245.63 217.137 245.242L223.34 241.626C223.987 241.239 224.762 241.239 225.279 241.497L231.612 245.113C232.129 245.371 232 245.888 231.483 246.275L225.279 249.891C224.762 250.279 223.857 250.279 223.34 250.021Z" fill="#233349"/>
<path d="M233.034 255.703L226.701 252.087C226.184 251.829 226.313 251.312 226.83 250.925L233.034 247.309C233.68 246.921 234.455 246.921 234.972 247.179L241.305 250.795C241.822 251.054 241.693 251.57 241.176 251.958L234.972 255.574C234.455 255.961 233.551 255.961 233.034 255.703Z" fill="#233349"/>
<path d="M242.727 261.256L236.394 257.64C235.877 257.382 236.006 256.865 236.523 256.478L242.727 252.862C243.373 252.474 244.149 252.474 244.666 252.733L250.999 256.349C251.516 256.607 251.386 257.123 250.869 257.511L244.666 261.127C244.149 261.514 243.244 261.514 242.727 261.256Z" fill="#233349"/>
<path d="M252.55 266.938L246.217 263.322C245.7 263.064 245.829 262.547 246.346 262.16L252.55 258.544C253.196 258.157 253.971 258.157 254.488 258.415L260.821 262.031C261.338 262.289 261.209 262.806 260.692 263.193L254.488 266.809C253.842 267.197 253.067 267.197 252.55 266.938Z" fill="#233349"/>
<path d="M159.752 202.496L153.419 198.88C152.902 198.622 153.031 198.105 153.548 197.718L159.752 194.102C160.398 193.714 161.174 193.714 161.691 193.973L168.024 197.589C168.541 197.847 168.411 198.363 167.894 198.751L161.691 202.367C161.174 202.754 160.269 202.754 159.752 202.496Z" fill="#233349"/>
<path d="M150.059 196.943L143.726 193.327C143.209 193.069 143.338 192.552 143.855 192.165L150.059 188.549C150.705 188.161 151.48 188.161 151.997 188.419L158.33 192.035C158.847 192.294 158.718 192.81 158.201 193.198L151.997 196.814C151.48 197.072 150.576 197.201 150.059 196.943Z" fill="#233349"/>
<path d="M140.365 191.261L134.032 187.645C133.515 187.386 133.645 186.87 134.161 186.482L140.365 182.866C141.011 182.479 141.787 182.479 142.304 182.737L148.637 186.353C149.154 186.611 149.025 187.128 148.508 187.515L142.304 191.131C141.787 191.519 140.882 191.648 140.365 191.261Z" fill="#233349"/>
<path d="M130.801 185.707L124.468 182.091C123.951 181.833 124.081 181.317 124.598 180.929L130.801 177.313C131.447 176.926 132.223 176.926 132.74 177.184L139.073 180.8C139.59 181.058 139.461 181.575 138.944 181.962L132.74 185.578C132.094 185.966 131.189 185.966 130.801 185.707Z" fill="#233349"/>
<path d="M140.753 180.025L134.42 176.409C133.903 176.151 134.032 175.634 134.549 175.247L136.617 174.085C137.264 173.697 138.039 173.697 138.556 173.955L144.889 177.571C145.406 177.83 145.277 178.346 144.76 178.734L142.692 179.896C142.046 180.154 141.27 180.283 140.753 180.025Z" fill="#233349"/>
<path d="M153.29 187.257L146.957 183.641C146.44 183.383 146.569 182.866 147.086 182.479L149.154 181.317C149.8 180.929 150.576 180.929 151.093 181.187L157.426 184.803C157.943 185.062 157.814 185.578 157.297 185.966L155.229 187.128C154.712 187.515 153.807 187.515 153.29 187.257Z" fill="#233349"/>
<path d="M162.983 192.81L156.65 189.194C156.133 188.936 156.263 188.419 156.78 188.032L158.848 186.87C159.494 186.482 160.269 186.482 160.786 186.741L167.119 190.357C167.636 190.615 167.507 191.131 166.99 191.519L164.922 192.681C164.405 193.069 163.5 193.069 162.983 192.81Z" fill="#233349"/>
<path d="M172.677 198.363L166.344 194.747C165.827 194.489 165.956 193.973 166.473 193.585L168.541 192.423C169.187 192.035 169.962 192.035 170.479 192.294L176.812 195.91C177.329 196.168 177.2 196.685 176.683 197.072L174.615 198.234C173.969 198.622 173.193 198.622 172.677 198.363Z" fill="#233349"/>
<path d="M182.241 203.917L175.908 200.301C175.391 200.042 175.52 199.526 176.037 199.138L178.105 197.976C178.751 197.589 179.527 197.589 180.044 197.847L186.377 201.463C186.894 201.721 186.764 202.238 186.247 202.625L184.179 203.787C183.662 204.175 182.758 204.175 182.241 203.917Z" fill="#233349"/>
<path d="M236.136 235.04L229.803 231.424C229.286 231.166 229.415 230.649 229.932 230.262L232 229.099C232.646 228.712 233.422 228.712 233.939 228.97L240.272 232.586C240.789 232.845 240.659 233.361 240.142 233.749L238.074 234.911C237.557 235.298 236.653 235.298 236.136 235.04Z" fill="#233349"/>
<path d="M245.7 240.593L239.367 236.977C238.85 236.719 238.979 236.202 239.496 235.815L241.564 234.653C242.21 234.265 242.986 234.265 243.503 234.523L249.836 238.139C250.353 238.398 250.223 238.914 249.706 239.302L247.638 240.464C247.121 240.851 246.217 240.851 245.7 240.593Z" fill="#233349"/>
<path d="M255.393 246.146L249.06 242.53C248.543 242.272 248.672 241.755 249.189 241.368L251.257 240.206C251.903 239.818 252.679 239.818 253.196 240.077L259.529 243.693C260.046 243.951 259.917 244.467 259.4 244.855L257.332 246.017C256.815 246.405 255.91 246.405 255.393 246.146Z" fill="#233349"/>
<path d="M265.086 251.699L258.753 248.083C258.236 247.825 258.366 247.309 258.883 246.921L260.951 245.759C261.597 245.371 262.372 245.371 262.889 245.63L269.222 249.246C269.739 249.504 269.61 250.021 269.093 250.408L267.025 251.57C266.379 251.958 265.603 251.958 265.086 251.699Z" fill="#233349"/>
<path d="M169.575 208.049L163.242 204.433C162.725 204.175 162.854 203.658 163.371 203.271L169.575 199.655C170.221 199.267 170.996 199.267 171.513 199.526L177.846 203.142C178.363 203.4 178.234 203.917 177.717 204.304L171.513 207.92C170.867 208.307 170.092 208.437 169.575 208.049Z" fill="#233349"/>
<path d="M179.268 213.731L172.935 210.115C172.418 209.857 172.547 209.341 173.064 208.953L179.268 205.337C179.914 204.95 180.69 204.95 181.207 205.208L187.54 208.824C188.057 209.082 187.927 209.599 187.41 209.986L181.207 213.602C180.69 213.99 179.785 213.99 179.268 213.731Z" fill="#233349"/>
<path d="M188.961 219.285L182.628 215.669C182.111 215.41 182.241 214.894 182.758 214.506L188.961 210.89C189.608 210.503 190.383 210.503 190.9 210.761L197.233 214.377C197.75 214.635 197.621 215.152 197.104 215.539L190.9 219.155C190.383 219.543 189.478 219.543 188.961 219.285Z" fill="#233349"/>
<path d="M198.784 224.967L192.451 221.351C191.934 221.093 192.063 220.576 192.58 220.189L198.784 216.573C199.43 216.185 200.206 216.185 200.723 216.443L207.056 220.059C207.573 220.318 207.443 220.834 206.926 221.222L200.723 224.838C200.076 225.225 199.172 225.225 198.784 224.967Z" fill="#233349"/>
<path d="M208.477 230.52L202.144 226.904C201.627 226.646 201.757 226.129 202.274 225.742L208.477 222.126C209.124 221.738 209.899 221.738 210.416 221.997L216.749 225.613C217.266 225.871 217.137 226.387 216.62 226.775L210.416 230.391C209.899 230.778 208.994 230.778 208.477 230.52Z" fill="#233349"/>
<path d="M218.171 236.202L211.838 232.586C211.321 232.328 211.45 231.811 211.967 231.424L218.171 227.808C218.817 227.421 219.592 227.421 220.109 227.679L226.442 231.295C226.959 231.553 226.83 232.07 226.313 232.457L220.109 236.073C219.592 236.461 218.688 236.461 218.171 236.202Z" fill="#233349"/>
<path d="M227.864 241.755L221.531 238.139C221.014 237.881 221.143 237.365 221.66 236.977L227.864 233.361C228.51 232.974 229.286 232.974 229.803 233.232L236.136 236.848C236.653 237.106 236.523 237.623 236.006 238.01L229.803 241.626C229.286 242.014 228.381 242.014 227.864 241.755Z" fill="#233349"/>
<path d="M237.687 247.438L231.354 243.822C230.837 243.563 230.966 243.047 231.483 242.659L237.687 239.043C238.333 238.656 239.108 238.656 239.625 238.914L245.958 242.53C246.475 242.789 246.346 243.305 245.829 243.693L239.625 247.309C239.108 247.696 238.203 247.696 237.687 247.438Z" fill="#233349"/>
<path d="M247.38 252.991L241.047 249.375C240.53 249.117 240.659 248.6 241.176 248.213L247.38 244.597C248.026 244.209 248.802 244.209 249.319 244.467L255.652 248.083C256.169 248.342 256.039 248.858 255.522 249.246L249.319 252.862C248.802 253.249 247.897 253.249 247.38 252.991Z" fill="#233349"/>
<path d="M113.87 208.824L95.259 198.105C94.7421 197.847 94.8713 197.33 95.3883 196.943L101.592 193.327C102.238 192.939 103.014 192.939 103.531 193.198L122.142 203.917C122.659 204.175 122.53 204.691 122.013 205.079L115.809 208.695C115.292 209.082 114.387 209.082 113.87 208.824Z" fill="#233349"/>
<path d="M233.422 277.786L214.81 267.067C214.293 266.809 214.423 266.293 214.94 265.905L221.143 262.289C221.79 261.902 222.565 261.902 223.082 262.16L241.693 272.879C242.21 273.137 242.081 273.654 241.564 274.041L235.36 277.657C234.843 278.045 233.939 278.045 233.422 277.786Z" fill="#233349"/>
<path d="M194.519 267.713L188.186 264.097C187.669 263.839 187.798 263.322 188.315 262.935L195.811 258.673C196.458 258.286 197.233 258.286 197.75 258.544L204.083 262.16C204.6 262.418 204.471 262.935 203.954 263.322L196.458 267.584C195.941 267.971 195.036 267.971 194.519 267.713Z" fill="#233349"/>
<path d="M123.822 226.904L113.741 221.093C113.224 220.834 113.353 220.318 113.87 219.93L121.366 215.669C122.013 215.281 122.788 215.281 123.305 215.539L133.386 221.351C133.903 221.609 133.774 222.126 133.257 222.513L125.761 226.775C125.244 227.162 124.339 227.162 123.822 226.904Z" fill="#233349"/>
<path d="M185.213 262.289L175.132 256.478C174.615 256.219 174.745 255.703 175.262 255.315L182.758 251.054C183.404 250.666 184.179 250.666 184.696 250.925L194.778 256.736C195.294 256.994 195.165 257.511 194.648 257.898L187.152 262.16C186.506 262.547 185.601 262.547 185.213 262.289Z" fill="#233349"/>
<path d="M137.91 235.04L127.829 229.229C127.312 228.97 127.441 228.454 127.958 228.066L135.454 223.805C136.1 223.417 136.876 223.417 137.393 223.675L147.474 229.487C147.991 229.745 147.862 230.262 147.345 230.649L139.848 234.911C139.331 235.298 138.427 235.298 137.91 235.04Z" fill="#233349"/>
<path d="M137.393 223.675L181.207 248.987C181.724 249.246 181.724 249.762 181.207 250.15L173.581 254.541C173.064 254.799 172.16 254.799 171.643 254.541L127.829 229.229L137.393 223.675Z" fill="#233349"/>
<path d="M221.789 277.915L228.769 281.919C229.156 282.177 229.156 282.565 228.639 282.823L225.538 284.631C225.021 284.889 224.374 284.889 223.857 284.76L216.878 280.757C216.49 280.498 216.49 280.111 217.007 279.853L220.109 278.045C220.626 277.657 221.273 277.657 221.789 277.915Z" fill="#233349"/>
<path d="M211.967 272.233L218.946 276.237C219.334 276.495 219.334 276.882 218.817 277.141L215.844 278.949C215.327 279.207 214.681 279.207 214.164 279.078L207.185 275.074C206.797 274.816 206.797 274.429 207.314 274.17L210.416 272.362C210.804 271.975 211.45 271.975 211.967 272.233Z" fill="#233349"/>
<path d="M202.144 266.551L209.123 270.554C209.511 270.813 209.511 271.2 208.994 271.458L205.892 273.266C205.375 273.525 204.729 273.525 204.212 273.395L197.233 269.392C196.845 269.134 196.845 268.746 197.362 268.488L200.464 266.68C201.11 266.422 201.756 266.422 202.144 266.551Z" fill="#233349"/>
<path d="M217.266 269.134L224.245 273.137C224.633 273.395 224.633 273.783 224.116 274.041L221.014 275.849C220.497 276.107 219.851 276.107 219.334 275.978L212.355 271.975C211.967 271.717 211.967 271.329 212.484 271.071L215.586 269.263C216.103 268.875 216.878 268.875 217.266 269.134Z" fill="#233349"/>
<path d="M320.274 257.769L134.42 150.451C131.447 148.773 130.026 144.64 131.06 141.282L173.064 4.90741C174.098 1.54969 177.329 0.129121 180.302 1.80798L366.285 109.126C369.257 110.805 370.679 114.937 369.645 118.295L327.641 254.67C326.477 258.027 323.246 259.448 320.274 257.769Z" fill="#1A2638"/>
<path d="M318.594 252.991L138.297 148.902C135.454 147.352 134.032 143.349 135.066 140.12L175.261 9.6857C176.295 6.45713 179.397 5.1657 182.111 6.71542L362.408 110.805C365.251 112.354 366.673 116.358 365.639 119.586L325.444 250.021C324.41 253.249 321.308 254.541 318.594 252.991Z" fill="url(#paint0_linear_12_1)"/>
<path opacity="0.4" d="M318.594 252.991L138.297 148.902C135.454 147.352 134.032 143.349 135.066 140.12L175.261 9.6857C176.295 6.45713 179.397 5.1657 182.111 6.71542L362.408 110.805C365.251 112.354 366.673 116.358 365.639 119.586L325.444 250.021C324.41 253.249 321.308 254.541 318.594 252.991Z" fill="#06033E"/>
<path d="M318.594 252.991L138.297 148.902C135.454 147.352 134.032 143.349 135.066 140.12L175.261 9.6857C176.295 6.45713 179.397 5.1657 182.111 6.71542L362.408 110.805C365.251 112.354 366.673 116.358 365.639 119.586L325.444 250.021C324.41 253.249 321.308 254.541 318.594 252.991Z" fill="#233349"/>
<path d="M308.9 213.086L186.764 142.703C184.826 141.541 183.792 138.958 184.567 136.633L212.225 47.008C212.872 44.8126 215.069 43.9086 216.878 44.9417L339.014 115.325C340.953 116.487 341.987 119.07 341.212 121.394L313.553 211.019C312.907 213.344 310.71 214.248 308.9 213.086Z" fill="#1A2638"/>
<path d="M292.357 215.281L170.221 144.898C168.282 143.736 167.248 141.153 168.024 138.829L195.682 49.2034C196.328 47.008 198.525 46.104 200.335 47.1372L322.471 117.52C324.41 118.682 325.444 121.265 324.668 123.59L297.01 213.215C296.364 215.539 294.296 216.443 292.357 215.281Z" fill="url(#paint1_radial_12_1)"/>
<path d="M292.357 215.281L170.221 144.898C168.282 143.736 167.248 141.153 168.024 138.829L195.682 49.2034C196.328 47.008 198.525 46.104 200.335 47.1372L322.471 117.52C324.41 118.682 325.444 121.265 324.668 123.59L297.01 213.215C296.364 215.539 294.296 216.443 292.357 215.281Z" fill="#30475E"/>
<path opacity="0.4" d="M138.426 288.376C136.746 288.376 135.195 287.989 133.903 287.343L85.0484 259.19C83.7559 258.415 82.9805 257.382 82.9805 256.219C82.9805 254.799 84.0144 253.507 85.6946 252.474L110.897 238.01C113.999 236.202 118.523 236.073 121.237 237.623L170.091 265.776C171.384 266.551 172.159 267.584 172.159 268.746C172.159 270.167 171.125 271.458 169.445 272.491L144.242 286.955C142.433 287.989 140.365 288.376 138.426 288.376ZM116.584 237.881C114.775 237.881 112.965 238.269 111.544 239.173L86.3408 253.637C85.0484 254.411 84.4022 255.315 84.4022 256.09C84.4022 256.994 85.0484 257.511 85.6946 257.898L134.549 286.181C136.746 287.472 140.882 287.343 143.467 285.793L168.67 271.329C169.962 270.554 170.608 269.65 170.608 268.875C170.608 267.971 169.962 267.455 169.316 267.067L120.461 238.914C119.427 238.139 118.006 237.881 116.584 237.881Z" fill="#233349"/>
<path d="M230.061 94.2743L222.565 89.8834C221.918 89.496 221.531 88.4628 221.789 87.688C222.048 86.9131 222.823 86.5257 223.469 87.0423L230.966 91.4331C231.612 91.8206 232 92.8537 231.741 93.6286C231.612 94.2743 230.836 94.6617 230.061 94.2743Z" fill="white"/>
<path d="M248.026 104.606L236.911 98.1486C236.265 97.7611 235.877 96.728 236.135 95.9531C236.394 95.1783 237.169 94.7908 237.816 95.3074L248.931 101.765C249.577 102.152 249.965 103.185 249.706 103.96C249.577 104.735 248.801 104.993 248.026 104.606Z" fill="white"/>
<path d="M214.81 127.851L207.314 123.461C206.668 123.073 206.28 122.04 206.538 121.265C206.797 120.49 207.572 120.103 208.219 120.619L215.715 125.01C216.361 125.398 216.749 126.431 216.49 127.206C216.361 127.851 215.586 128.239 214.81 127.851Z" fill="white"/>
<path d="M230.836 137.021L219.721 130.563C219.075 130.176 218.687 129.143 218.946 128.368C219.204 127.593 219.98 127.206 220.626 127.722L231.741 134.179C232.387 134.567 232.775 135.6 232.516 136.375C232.387 137.15 231.612 137.408 230.836 137.021Z" fill="white"/>
<path d="M207.443 88.2046L202.79 85.4926C202.144 85.1051 201.756 84.072 202.015 83.2972C202.273 82.5223 203.049 82.1349 203.695 82.6514L208.348 85.3634C208.994 85.7509 209.382 86.784 209.123 87.5589C208.994 88.3337 208.219 88.7212 207.443 88.2046Z" fill="white"/>
<path d="M221.66 103.443L207.314 95.1783C206.668 94.7909 206.28 93.7577 206.538 92.9829C206.797 92.208 207.572 91.8206 208.219 92.3371L222.565 100.602C223.211 100.99 223.599 102.023 223.34 102.798C223.082 103.573 222.436 103.96 221.66 103.443Z" fill="white"/>
<path d="M208.348 109.901L203.695 107.189C203.049 106.801 202.661 105.768 202.92 104.993C203.178 104.218 203.954 103.831 204.6 104.347L209.253 107.059C209.899 107.447 210.287 108.48 210.028 109.255C209.899 110.03 209.123 110.417 208.348 109.901Z" fill="white"/>
<path d="M232.646 152.13L220.109 144.898C219.463 144.511 219.075 143.478 219.334 142.703C219.592 141.928 220.368 141.541 221.014 142.057L233.551 149.289C234.197 149.677 234.584 150.71 234.326 151.485C234.068 152.259 233.292 152.647 232.646 152.13Z" fill="white"/>
<path d="M203.049 121.007L200.076 119.199C199.43 118.811 199.042 117.778 199.301 117.003C199.559 116.229 200.335 115.841 200.981 116.358L203.954 118.166C204.6 118.553 204.987 119.586 204.729 120.361C204.6 121.136 203.824 121.394 203.049 121.007Z" fill="white"/>
<path d="M200.205 133.534L196.457 131.338C195.811 130.951 195.423 129.918 195.682 129.143C195.94 128.368 196.716 127.981 197.362 128.497L201.11 130.693C201.756 131.08 202.144 132.113 201.886 132.888C201.756 133.534 200.981 133.921 200.205 133.534Z" fill="white"/>
<path d="M214.81 141.928L204.858 136.246C204.212 135.858 203.824 134.825 204.083 134.05C204.341 133.275 205.117 132.888 205.763 133.405L215.715 139.087C216.361 139.474 216.749 140.507 216.49 141.282C216.361 142.057 215.585 142.315 214.81 141.928Z" fill="white"/>
<path d="M201.756 141.411L194.648 137.279C194.002 136.891 193.614 135.858 193.872 135.083C194.131 134.309 194.906 133.921 195.553 134.438L202.661 138.57C203.307 138.958 203.695 139.991 203.437 140.766C203.307 141.541 202.532 141.799 201.756 141.411Z" fill="white"/>
<path d="M243.502 158.458L238.979 155.875C238.333 155.488 237.945 154.455 238.203 153.68C238.462 152.905 239.237 152.518 239.883 153.034L244.407 155.617C245.053 156.005 245.441 157.038 245.182 157.813C244.924 158.587 244.149 158.846 243.502 158.458Z" fill="white"/>
<path d="M225.925 120.103L213.388 112.871C212.742 112.483 212.354 111.45 212.613 110.675C212.871 109.901 213.647 109.513 214.293 110.03L226.83 117.262C227.476 117.649 227.864 118.682 227.605 119.457C227.347 120.103 226.571 120.49 225.925 120.103Z" fill="white"/>
<path d="M227.476 113.904L205.504 101.248C204.858 100.861 204.47 99.8274 204.729 99.0526C204.987 98.2777 205.763 97.8903 206.409 98.4068L228.381 111.063C229.027 111.45 229.415 112.483 229.156 113.258C228.898 113.904 228.122 114.291 227.476 113.904Z" fill="#FF6B08"/>
<path d="M214.422 120.49L201.886 113.258C201.239 112.871 200.852 111.838 201.11 111.063C201.369 110.288 202.144 109.901 202.79 110.417L215.327 117.649C215.973 118.037 216.361 119.07 216.103 119.845C215.973 120.619 215.198 120.878 214.422 120.49Z" fill="#FF6B08"/>
<path d="M235.489 125.527L230.966 122.944C230.32 122.557 229.932 121.523 230.19 120.749C230.449 119.974 231.224 119.586 231.871 120.103L236.394 122.686C237.04 123.073 237.428 124.106 237.17 124.881C236.911 125.656 236.136 126.043 235.489 125.527Z" fill="#FF6B08"/>
<path d="M282.017 124.235L254.876 108.609C254.23 108.222 253.842 107.189 254.1 106.414C254.359 105.639 255.134 105.251 255.781 105.768L282.922 121.394C283.568 121.782 283.956 122.815 283.697 123.59C283.439 124.235 282.664 124.623 282.017 124.235Z" fill="#FF6B08"/>
<path d="M213.388 134.05L198.267 125.269C197.621 124.881 197.233 123.848 197.491 123.073C197.75 122.298 198.525 121.911 199.172 122.427L214.293 131.209C214.939 131.597 215.327 132.63 215.069 133.405C214.939 134.179 214.164 134.438 213.388 134.05Z" fill="#FF6B08"/>
<path d="M215.715 85.88L204.6 79.4229C203.954 79.0354 203.566 78.0023 203.824 77.2274C204.083 76.4526 204.858 76.0651 205.505 76.5817L216.62 83.0389C217.266 83.4263 217.654 84.4594 217.395 85.2343C217.137 86.0091 216.361 86.3966 215.715 85.88Z" fill="#FF6B08"/>
<path d="M199.43 147.223L186.506 139.733C185.859 139.345 185.472 138.312 185.73 137.537C185.989 136.762 186.764 136.375 187.41 136.891L200.335 144.382C200.981 144.769 201.369 145.802 201.11 146.577C200.981 147.223 200.206 147.61 199.43 147.223Z" fill="#FF6B08"/>
<path d="M285.119 110.288L279.562 107.059C279.045 106.801 278.786 106.026 278.916 105.51C279.045 104.993 279.691 104.735 280.208 104.993L285.765 108.222C286.282 108.48 286.541 109.255 286.412 109.771C286.153 110.288 285.636 110.546 285.119 110.288Z" fill="white"/>
<path d="M295.588 116.358L290.031 113.129C289.514 112.871 289.255 112.096 289.384 111.579C289.514 111.063 290.16 110.805 290.677 111.063L296.234 114.291C296.751 114.55 297.01 115.325 296.881 115.841C296.622 116.358 296.105 116.616 295.588 116.358Z" fill="white"/>
<path d="M306.057 122.427L300.499 119.199C299.982 118.941 299.724 118.166 299.853 117.649C299.982 117.133 300.629 116.874 301.146 117.133L306.703 120.361C307.22 120.619 307.479 121.394 307.349 121.911C307.22 122.427 306.574 122.686 306.057 122.427Z" fill="white"/>
<path d="M311.226 125.398L311.097 125.269C310.58 125.01 310.322 124.235 310.451 123.719C310.58 123.202 311.226 122.944 311.743 123.202L311.873 123.331C312.39 123.59 312.648 124.365 312.519 124.881C312.39 125.398 311.743 125.656 311.226 125.398Z" fill="#FF6B08"/>
<defs>
<linearGradient id="paint0_linear_12_1" x1="134.623" y1="129.85" x2="365.927" y2="129.85" gradientUnits="userSpaceOnUse">
<stop stop-color="#3919BB"/>
<stop offset="1" stop-color="#6507FA"/>
</linearGradient>
<radialGradient id="paint1_radial_12_1" cx="0" cy="0" r="1" gradientUnits="userSpaceOnUse" gradientTransform="translate(-2.47902 -7.45529) scale(449.574 449.22)">
<stop stop-color="#E39A65"/>
<stop offset="0.4742" stop-color="#A92FFB"/>
<stop offset="0.5875" stop-color="#891CFB"/>
<stop offset="0.7262" stop-color="#6507FA"/>
<stop offset="1" stop-color="#3919BB"/>
</radialGradient>
</defs>
</svg>
