<svg width="322" height="187" viewBox="0 0 322 187" fill="none" xmlns="http://www.w3.org/2000/svg">
<path d="M320.604 64.8865C319.718 66.6586 317.947 67.9877 315.734 69.3168L260.835 101.216L205.937 132.671L194.869 138.874L172.289 152.165L119.605 182.735C111.636 187.608 97.9111 187.608 89.4992 182.735L6.26629 134.443C-1.70282 129.57 -2.14555 122.038 6.26629 117.165L89.4992 69.3168L112.078 56.0257L123.147 49.8232L178.045 18.3675L202.395 4.19026C204.609 2.86114 207.265 1.97507 209.921 1.53203C217.448 -0.240122 226.302 1.08899 232.058 4.19026L315.734 52.4814C321.489 55.5827 323.26 60.4561 320.604 64.8865Z" fill="#233349"/>
</svg>
